<?xml version="1.0" encoding="UTF-8" standalone="no"?>
<!-- Created with Inkscape (http://www.inkscape.org/) -->

<svg
   version="1.0"
   width="182"
   height="147"
   id="svg1402"
   sodipodi:docname="Triangle.Centroid.svg"
   inkscape:version="1.1.2 (0a00cf5339, 2022-02-04)"
   xmlns:inkscape="http://www.inkscape.org/namespaces/inkscape"
   xmlns:sodipodi="http://sodipodi.sourceforge.net/DTD/sodipodi-0.dtd"
   xmlns="http://www.w3.org/2000/svg"
   xmlns:svg="http://www.w3.org/2000/svg">
  <sodipodi:namedview
     id="namedview52"
     pagecolor="#ffffff"
     bordercolor="#666666"
     borderopacity="1.0"
     inkscape:pageshadow="2"
     inkscape:pageopacity="0.0"
     inkscape:pagecheckerboard="0"
     showgrid="false"
     inkscape:zoom="5.2789116"
     inkscape:cx="91.022552"
     inkscape:cy="73.5"
     inkscape:window-width="1920"
     inkscape:window-height="1011"
     inkscape:window-x="0"
     inkscape:window-y="0"
     inkscape:window-maximized="1"
     inkscape:current-layer="svg1402" />
  <defs
     id="defs1404" />
  <g
     transform="translate(-414.7143,-115.88)"
     id="layer1">
    <g
       transform="translate(274.2143,64.14179)"
       style="stroke:#000000;stroke-opacity:1"
       id="g6"
       xml:space="preserve">
<g
   style="fill:none;stroke:#000000;stroke-width:0.79701102;stroke-linecap:butt;stroke-linejoin:miter;stroke-miterlimit:10;stroke-opacity:1"
   id="g8">
	<path
   d="M 168.395,124.762 L 146.25,192.078 L 316.328,192.078 L 190.543,57.445 L 168.395,124.762 z "
   style="stroke:#000000;stroke-opacity:1"
   id="path10" />
</g>
<g
   style="fill:none;stroke:#000000;stroke-width:0.79701102;stroke-linecap:butt;stroke-linejoin:miter;stroke-miterlimit:10;stroke-opacity:1"
   id="g12">
	<path
   d="M 190.543,57.445 L 231.289,192.078"
   style="stroke:#ff0000;stroke-opacity:1"
   id="path14" />
</g>
<g
   style="fill:none;stroke:#000000;stroke-width:0.79701102;stroke-linecap:butt;stroke-linejoin:miter;stroke-miterlimit:10;stroke-opacity:1"
   id="g16">
	<path
   d="M 146.25,192.078 L 253.438,124.762"
   style="stroke:#ff0000;stroke-opacity:1"
   id="path18" />
</g>
<g
   style="fill:none;stroke:#000000;stroke-width:0.79701102;stroke-linecap:butt;stroke-linejoin:miter;stroke-miterlimit:10;stroke-opacity:1"
   id="g20">
	<path
   d="M 316.328,192.078 L 168.398,124.762"
   style="stroke:#ff0000;stroke-opacity:1"
   id="path22" />
</g>
<g
   style="fill:none;stroke:#000000;stroke-width:0.79701102;stroke-linecap:butt;stroke-linejoin:miter;stroke-miterlimit:10;stroke-opacity:1"
   id="g24">
	<path
   d="M 153.281,157.09 L 161.363,159.75"
   style="stroke:#000000;stroke-opacity:1"
   id="path26" />
</g>
<g
   style="fill:none;stroke:#000000;stroke-width:0.79701102;stroke-linecap:butt;stroke-linejoin:miter;stroke-miterlimit:10;stroke-opacity:1"
   id="g28">
	<path
   d="M 175.43,89.773 L 183.508,92.434"
   style="stroke:#000000;stroke-opacity:1"
   id="path30" />
</g>
<g
   style="fill:none;stroke:#000000;stroke-width:0.79701102;stroke-linecap:butt;stroke-linejoin:miter;stroke-miterlimit:10;stroke-opacity:1"
   id="g32">
	<path
   d="M 189.621,196.328 L 189.621,187.828"
   style="stroke:#000000;stroke-opacity:1"
   id="path34" />
</g>
<g
   style="fill:none;stroke:#000000;stroke-width:0.79701102;stroke-linecap:butt;stroke-linejoin:miter;stroke-miterlimit:10;stroke-opacity:1"
   id="g36">
	<path
   d="M 187.918,196.328 L 187.918,187.828"
   style="stroke:#000000;stroke-opacity:1"
   id="path38" />
</g>
<g
   style="fill:none;stroke:#000000;stroke-width:0.79701102;stroke-linecap:butt;stroke-linejoin:miter;stroke-miterlimit:10;stroke-opacity:1"
   id="g40">
	<path
   d="M 272.957,187.828 L 272.957,196.328"
   style="stroke:#000000;stroke-opacity:1"
   id="path42" />
</g>
<g
   style="fill:none;stroke:#000000;stroke-width:0.79701102;stroke-linecap:butt;stroke-linejoin:miter;stroke-miterlimit:10;stroke-opacity:1"
   id="g44">
	<path
   d="M 274.66,187.828 L 274.66,196.328"
   style="stroke:#000000;stroke-opacity:1"
   id="path46" />
</g>
<g
   style="fill:none;stroke:#000000;stroke-width:0.79701102;stroke-linecap:butt;stroke-linejoin:miter;stroke-miterlimit:10;stroke-opacity:1"
   id="g48">
	<path
   d="M 286.828,154.273 L 280.613,160.082"
   style="stroke:#000000;stroke-opacity:1"
   id="path50" />
</g>
<g
   style="fill:none;stroke:#000000;stroke-width:0.79701102;stroke-linecap:butt;stroke-linejoin:miter;stroke-miterlimit:10;stroke-opacity:1"
   id="g52">
	<path
   d="M 287.988,155.516 L 281.773,161.32"
   style="stroke:#000000;stroke-opacity:1"
   id="path54" />
</g>
<g
   style="fill:none;stroke:#000000;stroke-width:0.79701102;stroke-linecap:butt;stroke-linejoin:miter;stroke-miterlimit:10;stroke-opacity:1"
   id="g56">
	<path
   d="M 289.148,156.758 L 282.938,162.562"
   style="stroke:#000000;stroke-opacity:1"
   id="path58" />
</g>
<g
   style="fill:none;stroke:#000000;stroke-width:0.79701102;stroke-linecap:butt;stroke-linejoin:miter;stroke-miterlimit:10;stroke-opacity:1"
   id="g60">
	<path
   d="M 220.043,95.25 L 226.254,89.441"
   style="stroke:#000000;stroke-opacity:1"
   id="path62" />
</g>
<g
   style="fill:none;stroke:#000000;stroke-width:0.79701102;stroke-linecap:butt;stroke-linejoin:miter;stroke-miterlimit:10;stroke-opacity:1"
   id="g64">
	<path
   d="M 218.883,94.004 L 225.094,88.199"
   style="stroke:#000000;stroke-opacity:1"
   id="path66" />
</g>
<g
   style="fill:none;stroke:#000000;stroke-width:0.79701102;stroke-linecap:butt;stroke-linejoin:miter;stroke-miterlimit:10;stroke-opacity:1"
   id="g68">
	<path
   d="M 217.719,92.762 L 223.934,86.957"
   style="stroke:#000000;stroke-opacity:1"
   id="path70" />
</g>
<g
   style="fill:#7f7f7f;fill-rule:evenodd;stroke:#000000;stroke-width:0;stroke-linecap:butt;stroke-linejoin:miter;stroke-miterlimit:10;stroke-opacity:1"
   id="g72">
	<path
   d="M 150,192.5 C 150,190.57 148.43,189 146.5,189 C 144.57,189 143,190.57 143,192.5 C 143,194.43 144.57,196 146.5,196 C 148.43,196 150,194.43 150,192.5 z "
   style="fill:#ffffff;fill-opacity:1;stroke:#000000;stroke-width:0.5;stroke-miterlimit:10;stroke-dasharray:none;stroke-opacity:1"
   id="path74" />
</g>
<g
   style="fill:#7f7f7f;fill-rule:evenodd;stroke:#000000;stroke-width:0;stroke-linecap:butt;stroke-linejoin:miter;stroke-miterlimit:10;stroke-opacity:1"
   id="g76">
	<path
   d="M 320,192.5 C 320,190.57 318.43,189 316.5,189 C 314.57,189 313,190.57 313,192.5 C 313,194.43 314.57,196 316.5,196 C 318.43,196 320,194.43 320,192.5 z "
   style="fill:#ffffff;fill-opacity:1;stroke:#000000;stroke-width:0.5;stroke-miterlimit:10;stroke-dasharray:none;stroke-opacity:1"
   id="path78" />
</g>
<g
   style="fill:#7f7f7f;fill-rule:evenodd;stroke:#000000;stroke-width:0;stroke-linecap:butt;stroke-linejoin:miter;stroke-miterlimit:10;stroke-opacity:1"
   id="g80">
	<path
   d="M 194,57.5 C 194,55.57 192.43,54 190.5,54 C 188.57,54 187,55.57 187,57.5 C 187,59.43 188.57,61 190.5,61 C 192.43,61 194,59.43 194,57.5 z "
   style="fill:#ffffff;fill-opacity:1;stroke:#000000;stroke-width:0.5;stroke-miterlimit:10;stroke-dasharray:none;stroke-opacity:1"
   id="path82" />
</g>
<g
   style="fill:#7f7f7f;fill-rule:evenodd;stroke:#000000;stroke-width:0;stroke-linecap:butt;stroke-linejoin:miter;stroke-miterlimit:10;stroke-opacity:1"
   id="g84">
	<path
   d="M 235,192.5 C 235,190.57 233.43,189 231.5,189 C 229.57,189 228,190.57 228,192.5 C 228,194.43 229.57,196 231.5,196 C 233.43,196 235,194.43 235,192.5 z "
   style="fill:#ffffff;fill-opacity:1;stroke:#000000;stroke-width:0.5;stroke-miterlimit:10;stroke-dasharray:none;stroke-opacity:1"
   id="path86" />
</g>
<g
   style="fill:#7f7f7f;fill-rule:evenodd;stroke:#000000;stroke-width:0;stroke-linecap:butt;stroke-linejoin:miter;stroke-miterlimit:10;stroke-opacity:1"
   id="g88">
	<path
   d="M 257,124.5 C 257,122.57 255.43,121 253.5,121 C 251.57,121 250,122.57 250,124.5 C 250,126.43 251.57,128 253.5,128 C 255.43,128 257,126.43 257,124.5 z "
   style="fill:#ffffff;fill-opacity:1;stroke:#000000;stroke-width:0.5;stroke-miterlimit:10;stroke-dasharray:none;stroke-opacity:1"
   id="path90" />
</g>
<g
   style="fill:#7f7f7f;fill-rule:evenodd;stroke:#000000;stroke-width:0;stroke-linecap:butt;stroke-linejoin:miter;stroke-miterlimit:10;stroke-opacity:1"
   id="g92">
	<path
   d="M 172,124.5 C 172,122.57 170.43,121 168.5,121 C 166.57,121 165,122.57 165,124.5 C 165,126.43 166.57,128 168.5,128 C 170.43,128 172,126.43 172,124.5 z "
   style="fill:#ffffff;fill-opacity:1;stroke:#000000;stroke-width:0.5;stroke-miterlimit:10;stroke-dasharray:none;stroke-opacity:1"
   id="path94" />
</g>
<g
   style="fill:#7f7f7f;fill-rule:evenodd;stroke:#000000;stroke-width:0;stroke-linecap:butt;stroke-linejoin:miter;stroke-miterlimit:10;stroke-opacity:1"
   id="g96">
	<path
   d="M 221,147.5 C 221,145.57 219.43,144 217.5,144 C 215.57,144 214,145.57 214,147.5 C 214,149.43 215.57,151 217.5,151 C 219.43,151 221,149.43 221,147.5 z "
   style="fill:#ffffff;fill-opacity:1;stroke:#000000;stroke-width:0.5;stroke-miterlimit:10;stroke-dasharray:none;stroke-opacity:1"
   id="path98" />
</g>
</g>
  </g>
  <text
     xml:space="preserve"
     style="font-size:10.6667px;line-height:1.25;font-family:sans-serif"
     x="70.496452"
     y="61.761814"
     id="text4566"><tspan
       sodipodi:role="line"
       id="tspan4564"
       x="70.496452"
       y="61.761814"
       style="font-size:10.6667px">2x</tspan></text>
  <text
     xml:space="preserve"
     style="font-size:10.6667px;line-height:1.25;font-family:sans-serif"
     x="88.303154"
     y="124.05715"
     id="text7870"><tspan
       sodipodi:role="line"
       id="tspan7868"
       x="88.303154"
       y="124.05715"
       style="font-size:10.6667px">x</tspan></text>
</svg>
